<?xml version="1.0" encoding="utf-8"?>
<!-- Generator: Adobe Illustrator 27.5.0, SVG Export Plug-In . SVG Version: 6.00 Build 0)  -->
<svg version="1.1" xmlns="http://www.w3.org/2000/svg" xmlns:xlink="http://www.w3.org/1999/xlink" x="0px" y="0px"
	 viewBox="0 0 500 500" style="enable-background:new 0 0 500 500;" xml:space="preserve">
<g id="BACKGROUND">
	<rect style="fill:#402C49;" width="500" height="500"/>
</g>
<g id="OBJECT">
	<g>
		<g>
			<path style="fill:#523B5E;" d="M101.517,107.173c-10.59,2.911-20.077,9.639-26.299,18.652c-2.289,3.316-4.192,7.095-4.235,11.118
				c-0.044,4.023,2.203,8.276,6.037,9.551c3.019,1.004,6.304,0.051,9.34-0.9c7.983-2.502,15.967-5.003,23.95-7.505
				c9-2.82,29.703-8.679,24.887-22.084C130.7,103.488,111.631,104.393,101.517,107.173z"/>
			<path style="fill:#523B5E;" d="M445.309,213.579c-17.734-37.182-50.31-65.826-86.607-85.542
				c-52.625-28.585-114.505-39.961-173.916-31.97c-6.789,0.913-13.72,2.132-19.623,5.595c-5.902,3.462-10.643,9.633-10.565,16.452
				c0.152,13.314,14.365,22.625,4.257,35.88c-6.899,9.048-20.529,14.701-31.244,17.585c-24.953,6.716-45.865,15.183-63.052,35.668
				c-10.045,11.973-17.416,26.221-20.849,41.471c-8.327,36.995,6.764,78.184,37.062,101.157
				c20.518,15.557,46.166,22.629,71.386,28.002c39.627,8.444,79.976,13.533,120.466,15.194c31.446,1.29,63.414,0.45,93.607-8.391
				c30.193-8.841,58.714-26.427,75.603-52.862C464.025,297.086,463.043,250.761,445.309,213.579z M89.033,299.551
				c-11.003-4.219-20.17-17.942-21.853-29.114c-1.77-11.754,2.846-24.269,11.837-32.09c4.057-3.529,9.116-6.18,14.5-6.365
				s11.037,2.48,13.42,7.291c4.518,9.122-3.977,20.092-1.414,29.937c1.288,4.947,5.238,8.912,6.367,13.897
				C114.632,295.21,99.325,303.497,89.033,299.551z M414.002,326.806c-3.581,0.258-7.154-1.866-8.853-5.014
				c-2.121-3.93-1.38-9.174,1.621-12.462c4.005-4.387,10.911-3.53,14.177,1.275C424.987,316.548,421.784,326.246,414.002,326.806z
				 M438.265,278.757c-1.4,4.49-3.426,8.968-6.983,12.06c-3.557,3.092-8.941,4.47-13.13,2.3c-5.482-2.84-6.748-10.197-5.749-16.267
				c0.926-5.629,3.196-11.032,3.259-16.794c0.005-0.432,0-0.87-0.012-1.312c-0.22-8.05-2.868-17.599,4.801-23.505
				c5.74-4.42,12.968-0.548,16.717,4.762C444.493,250.379,441.782,267.478,438.265,278.757z"/>
		</g>
		<path style="fill:#2E2035;" d="M36.426,422.987h427.005c1.301,0,2.486,0.936,2.616,2.23c0.149,1.488-1.016,2.743-2.474,2.743
			H36.426c-1.373,0-2.486-1.113-2.486-2.487l0,0C33.94,424.1,35.053,422.987,36.426,422.987z"/>
		<g>
			<g>
				<path style="fill:#99A3B0;" d="M236.378,184.066L236.378,184.066c-10.682,4.574-19.338,12.872-24.359,23.35l-22.569,47.1h38.839
					l12.346-20.976L236.378,184.066z"/>
				<g>
					<path style="fill:#495375;" d="M236.625,240.352l4.009-6.812l-0.945-10.987c-3.007-2.383-5.755-5.092-8.156-8.086
						c-4.783-5.966-8.178-13.023-9.935-20.463c-3.911,3.856-7.169,8.379-9.58,13.412l-1.374,2.867
						c2.421,7.36,6.486,14.182,11.868,19.758C226.579,234.255,231.385,237.741,236.625,240.352z"/>
					<path style="fill:#495375;" d="M203.242,225.734l-7.305,15.245c2.259,4.947,5.292,9.538,8.976,13.538h23.376l0.67-1.138
						c-5.528-2.647-10.593-6.261-14.85-10.672C209.412,237.841,205.716,232.026,203.242,225.734z"/>
				</g>
				<path style="opacity:0.3;fill:#21255C;" d="M228.621,207.416c-4.022,15.282-5.51,31.34-4.119,47.101h3.787l12.346-20.976
					l-2.204-25.611L228.621,207.416z"/>
			</g>
			<g>
				<g>
					<g>
						<path style="fill:#21255C;" d="M392.407,356.672c7.589,24.087,11.907,66.315,11.907,66.315H289.884v-48.823L392.407,356.672z"
							/>
						<path style="fill:#0D0B3F;" d="M363.225,391.155c12.567-4.458,23.586-11.733,32.813-20.705
							c-1.109-4.926-2.321-9.622-3.631-13.777l-102.523,17.492v48.823h63.659v-18.201
							C353.543,398.645,357.437,393.208,363.225,391.155z"/>
					</g>
					<g>
						<path style="fill:#99A3B0;" d="M261.926,373.447c37.851,20.216,105.381,7.312,136.35-15.484l-11.194-63.168
							c-4.567-25.772-11.905-50.976-21.885-75.172l-14.665-35.555l-40.938-13.726l-73.216,13.726
							c-10.377,13.843-9.148,32.807-3.58,49.188c5.568,16.38,15.315,30.997,22.157,46.888
							C266.999,308.12,269.161,343.858,261.926,373.447z"/>
						<g>
							<path style="fill:#495375;" d="M372.555,239.032c-2.268-6.535-4.718-13.009-7.359-19.411l-0.007-0.017
								c-21.046,8.033-43.5,12.384-66.027,12.652c-23.733,0.283-47.502-3.944-69.716-12.296c0.732,4.516,1.89,8.994,3.352,13.294
								c0.812,2.39,1.722,4.739,2.69,7.063c22.054,8.214,45.621,12.376,69.155,12.095
								C327.844,252.135,350.969,247.533,372.555,239.032z"/>
							<path style="fill:#495375;" d="M357.639,201.297l-5.097-12.358c-16.266,1.287-33.134,1.986-50.045,2.042
								c-23.302,0.077-46.633-1.059-68.498-3.298c-2.372,4.106-3.883,8.561-4.689,13.199c21.442,7.7,44.25,11.605,67.033,11.333
								C317.189,211.967,337.974,208.218,357.639,201.297z"/>
							<path style="fill:#495375;" d="M265.858,345.982c-0.485,9.452-1.796,18.727-3.932,27.465
								c37.851,20.216,105.381,7.312,136.35-15.484l-0.814-4.594c-17.311,5.271-35.362,8.119-53.457,8.335
								C317.237,362.022,290.434,356.584,265.858,345.982z"/>
							<path style="fill:#495375;" d="M394.435,336.292l-4.106-23.172c-15.958,4.447-32.482,6.862-49.047,7.059
								c-26.981,0.322-53.999-5.204-78.735-15.974c1.377,6.354,2.35,12.872,2.92,19.442c26.231,12.451,55.313,18.873,84.35,18.527
								C364.854,341.995,379.858,339.984,394.435,336.292z"/>
							<path style="fill:#495375;" d="M385.861,288.293c-1.64-8.365-3.573-16.665-5.795-24.886
								c-21.143,8.115-43.717,12.512-66.364,12.782c-22.396,0.267-44.817-3.5-65.94-10.941c2.54,4.901,5.014,9.833,7.193,14.894
								c0.777,1.804,1.51,3.641,2.205,5.506c22.391,8.507,46.379,12.822,70.333,12.537
								C347.305,297.948,367.068,294.569,385.861,288.293z"/>
						</g>
						<path style="opacity:0.3;fill:#21255C;" d="M365.52,220.42l-24.688,10.359l16.807,59.366l-5.06,1.899
							c-6.081,2.283-12.731-1.562-13.789-7.97l-3.409-20.667l-28.554,11.214l-50.322,9.328c10.662,27.362,12.332,61.233,5.42,89.497
							c24.556,13.115,61.599,12.288,93.051,3.866v-13.414c0-6.405,3.48-12.304,9.087-15.402l29.634-16.372l-6.616-37.331
							C382.564,269.304,375.333,244.373,365.52,220.42z"/>
						<path style="opacity:0.3;fill:#21255C;" d="M311.694,174.208c1.398,11.542-2.163,23.791-10.248,32.147
							c-8.085,8.356-20.729,12.326-31.928,9.202c-11.199-3.124-20.179-13.64-20.648-25.257
							C267.911,180.519,290.345,175.764,311.694,174.208z"/>
					</g>
				</g>
				<g>
					<g>
						<path style="fill:#E78882;" d="M244.896,163.023c0,6.928-5.616,12.544-12.544,12.544c-6.928,0-12.544-5.616-12.544-12.544
							c0-6.928,5.616-12.544,12.544-12.544C239.28,150.479,244.896,156.095,244.896,163.023z"/>
						
							<ellipse transform="matrix(0.229 -0.9734 0.9734 0.229 20.4455 351.8608)" style="fill:#DE7274;" cx="232.352" cy="163.023" rx="7.317" ry="7.317"/>
					</g>
					<g>
						<path style="fill:#EBA58E;" d="M282.664,203.426L282.664,203.426c-22.319,5.68-45.016-7.809-50.695-30.128l-5.015-19.706
							c-5.679-22.319,7.809-45.016,30.128-50.695h0c22.319-5.679,45.016,7.809,50.695,30.128l5.015,19.706
							C318.472,175.049,304.983,197.746,282.664,203.426z"/>
						<path style="fill:#8C404C;" d="M307.089,157.058l-0.703-0.119c-2.59-0.439-4.77-2.185-5.765-4.617l-1.523-3.723
							c-0.673-1.645-1.902-3.003-3.472-3.836l0,0c-1.92-1.019-3.311-2.811-3.823-4.923l-2.492-10.276l18.921-0.816
							c1.851,1.2,3.301,3.224,4.32,5.181c-0.982-0.4-2.021-0.794-3.003-1.195c0.981,1.991-0.522,5.199-0.522,5.199l1.551,6.095
							L307.089,157.058z"/>
						<g>
							<path style="fill:#E78882;" d="M268.534,184.066c-1.677,1.615-3.455,3.29-5.705,3.89c-2.314,0.618-4.932-0.078-6.635-1.762
								c0.612,1.235,1.399,2.617,2.431,3.53c1.032,0.913,2.39,1.521,3.764,1.427c1.52-0.104,2.883-1.048,3.837-2.235
								C267.181,187.729,267.938,185.469,268.534,184.066z"/>
							<path style="fill:#FFFFFF;" d="M287.615,183.281c-6.464,5.81-14.143,10.262-22.397,12.985
								c4.009,4.036,11.136,4.991,16.198,2.395C286.477,196.065,288.554,188.892,287.615,183.281z"/>
							<g>
								<path style="fill:#0D0B3F;" d="M309.027,137.935c-2.608,6.464-9.114,12.651-15.807,14.599
									c-5.072,1.476-10.657,1.224-15.377,3.594c-6.353,3.19-10.186,10.674-17.066,12.46c-5.507,1.43-11.171-1.285-16.101-4.126
									c-4.93-2.841-10.717-6.103-16.386-5.626l3.68,14.462c0.721,4.354,4.826,8.777,9.045,10.068
									c4.22,1.291,9.12-0.001,12.154-3.205c1.28-1.352,2.26-3.017,3.786-4.083c2.546-1.779,6.034-1.472,8.945-0.39
									c2.911,1.082,5.538,2.841,8.47,3.866c4.591,1.605,9.827,1.266,14.172-0.917c4.346-2.183,7.743-6.182,9.195-10.823
									c0.951-3.038,1.089-6.267,1.784-9.374c0.368-1.645,0.936-2.901,1.944-4.241c0.894-1.189,1.932-2.26,2.987-3.306
									c2.075-2.057,4.717-4.261,6.126-6.863L309.027,137.935z"/>
								<path style="fill:#FFFFFF;" d="M287.775,158.817c-4.284,4.392-9.101,8.264-14.311,11.504
									c1.752,1.703,4.497,2.647,6.922,2.343c2.424-0.305,4.678-1.76,5.954-3.844C288.004,166.104,287.892,162.001,287.775,158.817
									z"/>
								<path style="fill:#FFFFFF;" d="M234.102,166.235c4.701,2.905,9.666,5.197,14.753,6.81c-0.873,2.011-2.759,3.585-4.766,3.934
									c-2.007,0.349-4.223-0.397-5.856-1.972C236.105,172.954,234.964,169.175,234.102,166.235z"/>
							</g>
						</g>
					</g>
					<g>
						<circle style="fill:#EBA58E;" cx="316.911" cy="153.161" r="12.544"/>
						<circle style="fill:#E78882;" cx="316.911" cy="153.161" r="7.317"/>
					</g>
					<g>
						<g>
							<path style="fill:#21255C;" d="M221.494,123.687c-0.066-12.689,5.627-25.225,15.128-33.636
								c9.305-8.237,22.322-12.327,34.571-10.229c12.249,2.098,25.439,10.795,30.12,22.307c3.991,9.818-5.992,21.313-14.21,28.005
								c-8.218,6.692-18.624,10.326-29.14,11.648c-6.682,0.84-13.647,0.762-19.925-1.675
								C230.923,137.345,221.534,131.319,221.494,123.687z"/>
							<path style="fill:#0D0B3F;" d="M301.313,102.13c-2.943-7.238-9.251-13.362-16.573-17.434
								c2.181,2.122,4.087,4.531,5.626,7.157c3.144,5.365,2.032,12.185-2.551,16.388c-8.376,7.681-18.026,14.242-28.71,17.541
								c-12.383,3.823-26.546,3.13-37.579-3.479c-0.013,0.462-0.034,0.922-0.032,1.384c0.04,7.632,9.429,13.659,16.544,16.42
								c6.278,2.437,13.243,2.515,19.925,1.675c10.515-1.322,20.922-4.956,29.14-11.648S305.305,111.947,301.313,102.13z"/>
							<path style="fill:#0D0B3F;" d="M249.361,86.751c1.593,3.254,5.062,5.817,8.683,5.912c2.904-0.499,5.82-1.095,8.518-2.282
								c2.698-1.187,5.188-3.014,6.719-5.532c0.78-1.283,1.276-2.76,1.417-4.254c-1.171-0.315-2.342-0.574-3.505-0.773
								c-7.666-1.313-15.632-0.202-22.801,2.832C248.426,84.07,248.738,85.477,249.361,86.751z"/>
						</g>
						<g>
							<path style="fill:#353B77;" d="M245.04,82.973c-0.501-1.968-0.122-4.013,0.923-5.923c-2.968,2.694-4.462,6.101-3.647,9.306
								c1.399,5.498,9.034,8.3,17.053,6.26c5.148-1.31,9.191-4.3,11.064-7.726c-2.123,1.928-4.995,3.492-8.34,4.343
								C254.074,91.273,246.439,88.471,245.04,82.973z"/>
							<path style="fill:#21255C;" d="M271.356,78.966c-1.399-5.498-9.034-8.3-17.053-6.26c-3.345,0.851-6.217,2.416-8.34,4.343
								c-1.045,1.911-1.423,3.955-0.923,5.923c1.399,5.498,9.034,8.3,17.053,6.26c3.345-0.851,6.217-2.416,8.34-4.343
								C271.478,82.979,271.857,80.934,271.356,78.966z"/>
						</g>
						<path style="fill:#21255C;" d="M309.173,123.232c0.345,1.894,0.029,3.853-0.941,5.517
							c-10.989,18.856-30.623,29.94-52.621,31.624c-9.817,0.751-19.906-0.996-28.286-5.895c-3.486-2.038-5.885-5.526-6.585-9.503
							l-1.856-10.54c-0.667-3.79,0.279-7.686,2.61-10.748l0,0c7.771,6.477,17.78,9.233,27.875,8.571
							c10.095-0.661,19.798-4.227,28.858-8.729c9.626-4.784,19.283-11.345,23.086-21.399l0.056,0.007
							c3.236,0.41,5.729,3.05,5.948,6.305C307.646,113.334,308.318,118.54,309.173,123.232z"/>
						<path style="fill:#353B77;" d="M269.541,152.682c-16.756,3.315-34.728-0.194-49.098-9.396l0.297,1.689
							c0.7,3.977,3.098,7.465,6.585,9.503c8.38,4.899,18.469,6.646,28.286,5.895c21.092-1.614,40.007-11.876,51.216-29.34
							C297.165,142.01,283.902,149.84,269.541,152.682z"/>
					</g>
				</g>
			</g>
			<g>
				<g>
					<g>
						<path style="fill:#C7D2D7;" d="M335.381,404.207H102.508V259.225c0-5.901,4.784-10.685,10.685-10.685h211.503
							c5.901,0,10.685,4.784,10.685,10.685V404.207z"/>
						<path style="fill:#353B77;" d="M106.393,404.207V259.225c0-3.749,3.051-6.8,6.8-6.8h211.503c3.749,0,6.8,3.05,6.8,6.8v144.982
							H106.393z"/>
						
							<rect x="154.71" y="227.422" transform="matrix(-1.836970e-16 1 -1 -1.836970e-16 547.2609 109.372)" style="fill:#96E4FF;" width="128.469" height="201.789"/>
					</g>
					<g>
						<rect x="86.354" y="404.207" style="fill:#C7D2D7;" width="265.182" height="11.171"/>
						<path style="fill:#99A3B0;" d="M323.261,422.987H114.628c-9.931,0-19.685-2.625-28.274-7.609l0,0h265.182l0,0
							C342.946,420.362,333.192,422.987,323.261,422.987z"/>
						<path style="fill:#99A3B0;" d="M240.719,409.793h-34.807c-3.085,0-5.585-2.501-5.585-5.585l0,0h45.978l0,0
							C246.304,407.292,243.804,409.793,240.719,409.793z"/>
					</g>
				</g>
				<g>
					<path style="fill:#EBA25D;" d="M186.127,287.644l-13.434,84.975h93.691l13.221-83.632c0.413-2.611-1.605-4.973-4.249-4.973
						h-84.982C188.259,284.014,186.457,285.553,186.127,287.644z"/>
					<polygon style="fill:#D4CFBE;" points="172.693,372.619 266.384,372.619 267.774,289.509 174.083,289.509 					"/>
					<polygon style="fill:#E4E4E0;" points="172.693,372.619 266.384,372.619 260.235,294.25 166.543,294.25 					"/>
					<polygon style="fill:#FFFFFF;" points="172.693,372.619 266.384,372.619 254.085,300.071 160.394,300.071 					"/>
					<path style="fill:#F0BF6C;" d="M197.677,311.046l-0.96-2.735c-0.508-1.448-2.108-2.633-3.556-2.633h-41.648
						c-1.422,0-2.164,1.143-1.665,2.564l1.907,5.436l1.009,2.84l19.929,56.1h93.691l-19.283-54.28
						c-0.912-2.567-3.748-4.66-6.315-4.66h-39.553C199.785,313.679,198.185,312.495,197.677,311.046z"/>
					<path style="fill:#EBA25D;" d="M177.266,355.85l-17.823-50.171h-7.93c-1.422,0-2.164,1.143-1.665,2.564l1.907,5.436l1.009,2.84
						l19.929,56.1h93.691l-2.052-5.777h-71.497C185.842,366.842,179.607,362.44,177.266,355.85z"/>
				</g>
			</g>
			<g>
				<g>
					<path style="fill:#21255C;" d="M314.831,317.853l-10.049-9.391c-5.295-4.948-11.489-8.836-18.247-11.453l-7.229-2.799
						c-2.372-0.918-5.01,0.46-5.61,2.932l0,0c-0.417,1.718,0.284,3.514,1.755,4.495l18.465,12.31l-3.385-1.013
						c-3.47-1.039-7.078-1.54-10.699-1.486l-6.109,0.09c-3.701,0.055-6.155,3.859-4.679,7.253l0,0
						c0.741,1.704,2.337,2.881,4.183,3.086l15.338,1.704c3.173,0.353,6.129,1.781,8.378,4.047l0.683,0.689l-22.004,4.541
						c-2.409,0.497-4.057,2.729-3.824,5.177l0,0c0.25,2.623,2.559,4.559,5.186,4.347l21.933-1.769l-16.419,11.798
						c-1.646,1.182-2.077,3.447-0.981,5.151l0,0c1.08,1.68,3.273,2.24,5.026,1.284l17.392-9.487l0,0
						c5.942,1.674,12.271,1.339,18.004-0.951l1.925-0.769L314.831,317.853z"/>
					<path style="fill:#0D0B3F;" d="M323.864,347.639l-9.033-29.786l-1.052-0.984c-6.77,13.223,0.568,27.637,4.095,32.802
						c1.378-0.32,2.738-0.733,4.064-1.263L323.864,347.639z"/>
				</g>
				<g>
					<path style="fill:#99A3B0;" d="M353.086,183.823L353.086,183.823c9.871,2.434,18.051,9.314,22.141,18.621l35.54,80.87
						c8.059,18.338-1.442,39.628-20.472,45.878l-66.646,21.888l-0.741-0.845c-9.032-10.304-12.088-24.549-8.077-37.651v0
						l56.346-16.13l-39.855-86.255c-2.88-6.232-2.168-13.533,1.862-19.092l0,0C337.717,184.855,345.588,181.974,353.086,183.823z"/>
					<g>
						<path style="fill:#495375;" d="M390.38,236.924l-6.972-15.865c-4.398,6.151-9.753,11.619-15.845,16.1
							c-5.828,4.287-12.321,7.648-19.161,10.004l7.564,16.371c6.385-2.329,12.447-5.542,17.923-9.569
							C380.288,249.258,385.862,243.456,390.38,236.924z"/>
						<path style="fill:#495375;" d="M376.415,205.147l-1.188-2.703c-1.824-4.15-4.465-7.813-7.703-10.819
							c-3.707,4.462-7.941,8.485-12.614,11.922c-6.535,4.806-13.905,8.451-21.664,10.815l7.586,16.418
							c7.298-2.368,14.224-5.881,20.404-10.427C367.029,216.092,372.144,210.931,376.415,205.147z"/>
						<path style="fill:#495375;" d="M404.313,268.629l-6.961-15.84c-4.627,6.918-10.431,13.05-17.136,17.982
							c-5.124,3.769-10.763,6.821-16.698,9.107l7.659,16.576c4.202-1.971,11.626-6.127,15.365-8.877
							C393.559,282.417,399.587,275.943,404.313,268.629z"/>
						<path style="fill:#495375;" d="M330.46,308.11l-15.629,4.474c-4.011,13.102-0.955,27.347,8.077,37.651l0.74,0.845
							l12.369-4.062c-3.487-5.161-5.913-11.042-7.021-17.172C327.693,322.627,328.219,315.093,330.46,308.11z"/>
						<path style="fill:#495375;" d="M371.178,296.454c8.286,13.393,25.042,20.132,35.07,21.649
							c5.922-7.452,8.575-17.245,6.888-26.927C405.176,296.249,389.788,301.299,371.178,296.454z"/>
						<path style="fill:#495375;" d="M364.892,298.254L364.892,298.254l-17.451,4.995c-1.919,7.239-1.845,14.999,0.235,22.195
							c1.596,5.52,4.367,10.69,8.047,15.103l22.044-7.24C370.934,327.377,361.785,315.324,364.892,298.254z"/>
					</g>
				</g>
			</g>
			<g>
				<path style="fill:#21255C;" d="M169.162,242.832l-0.92-0.637c-1.762-1.22-4.005-1.514-6.022-0.789l0,0
					c-3.337,1.199-5.141,4.809-4.098,8.198l2.749,8.93c0.72,2.339,3.083,3.763,5.488,3.308l0,0c2.41-0.456,4.09-2.654,3.898-5.1
					L169.162,242.832z"/>
				<path style="fill:#21255C;" d="M181.062,234.516L181.062,234.516c-2.075-1.173-4.582-1.295-6.761-0.329l-2.156,0.955
					c-3.311,1.467-5.11,5.081-4.285,8.607l3.405,14.553c0.673,2.875,3.456,4.739,6.37,4.267l0,0
					c2.843-0.461,4.877-2.996,4.711-5.872L181.062,234.516z"/>
				<path style="fill:#21255C;" d="M192.918,235.249L192.918,235.249c1.843-1.511,4.292-2.062,6.604-1.485l2.288,0.571
					c3.513,0.877,5.906,4.129,5.698,7.744l-0.858,14.921c-0.169,2.948-2.591,5.262-5.544,5.296l0,0
					c-2.88,0.034-5.319-2.115-5.648-4.976L192.918,235.249z"/>
				<path style="fill:#21255C;" d="M186.676,229.138L186.676,229.138c4.39-0.193,8.01,3.403,7.846,7.795l-0.78,20.925
					c-0.116,3.097-2.66,5.549-5.759,5.549l0,0c-2.894,0-5.339-2.145-5.714-5.014l-2.721-20.762
					C178.974,233.257,182.27,229.332,186.676,229.138z"/>
			</g>
		</g>
	</g>
</g>
</svg>
